<svg width="142" height="38" viewBox="0 0 142 38" fill="none" xmlns="http://www.w3.org/2000/svg">
<path d="M94.4239 9.38965C86.5807 9.38965 80.4375 15.6363 80.4375 23.6138C80.4375 31.5913 86.7648 37.838 94.8474 37.838C98.7813 37.838 102.528 36.4469 105.397 33.9216L106.486 32.9617L103.445 28.8622L102.052 30.1677C100.233 31.8748 97.606 32.8524 94.8443 32.8524C90.5361 32.8524 87.0962 30.1115 86.1266 26.0416H108.039C108.039 26.0416 108.094 23.8501 108.094 23.5636C108.094 15.6157 102.089 9.3926 94.4239 9.3926V9.38965ZM86.1082 21.1978C87.0072 17.1574 90.2691 14.3752 94.3718 14.3752C98.4744 14.3752 101.617 17.2106 102.488 21.1978H86.1082Z" fill="#FE5100"/>
<path d="M65.4875 9.32131C62.6368 9.32131 59.9611 10.2428 57.8867 11.8318V9.32131H52.6211V37.9734H57.8867V21.5016C57.8867 18.1642 60.8601 14.4427 65.1254 14.4427C69.3907 14.4427 70.9096 16.2473 70.9096 20.4797V37.9705H76.1752V20.2257C76.1752 13.2938 72.2813 9.31836 65.4875 9.31836V9.32131Z" fill="#FE5100"/>
<path d="M127.223 9.38965C118.938 9.38965 112.445 15.6363 112.445 23.6138C112.445 31.5913 118.935 37.838 127.223 37.838C135.512 37.838 142.002 31.5913 142.002 23.6138C142.002 15.6363 135.512 9.38965 127.223 9.38965ZM127.223 32.749C121.903 32.749 117.889 28.8209 117.889 23.6109C117.889 18.4008 121.903 14.4756 127.223 14.4756C132.544 14.4756 136.558 18.4038 136.558 23.6109C136.558 28.8179 132.544 32.749 127.223 32.749Z" fill="#FE5100"/>
<path d="M16.6624 13.5772C17.464 13.5772 18.1138 12.9518 18.1138 12.1802C18.1138 11.4087 17.464 10.7832 16.6624 10.7832C15.8608 10.7832 15.2109 11.4087 15.2109 12.1802C15.2109 12.9518 15.8608 13.5772 16.6624 13.5772Z" fill="#FFB600"/>
<path d="M19.9991 15.4914C21.6209 15.4914 22.9357 14.2259 22.9357 12.6649C22.9357 11.1039 21.6209 9.83838 19.9991 9.83838C18.3773 9.83838 17.0625 11.1039 17.0625 12.6649C17.0625 14.2259 18.3773 15.4914 19.9991 15.4914Z" fill="#000F9F"/>
<mask id="mask0_953_944" style="mask-type:luminance" maskUnits="userSpaceOnUse" x="16" y="9" width="30" height="29">
<path d="M39.826 9.34775V12.3338C37.4233 10.3667 34.2842 9.21484 30.9794 9.21484C22.86 9.21484 16.7383 15.3936 16.7383 23.5867C16.7383 31.7797 22.86 37.9585 30.9794 37.9585C34.2781 37.9585 37.4387 36.7623 39.826 34.7598V37.9969H45.2175V9.34775H39.826ZM31.139 32.8194C25.9807 32.8194 22.2402 28.9355 22.2402 23.5867C22.2402 18.2379 26.0421 14.354 31.0868 14.354C36.1315 14.354 39.8291 18.4092 39.8291 23.5867C39.8291 28.7642 36.0118 32.8194 31.142 32.8194H31.139Z" fill="white"/>
</mask>
<g mask="url(#mask0_953_944)">
<path d="M23.3259 25.9938C31.2487 25.9938 37.6714 19.8119 37.6714 12.1861C37.6714 4.56034 31.2487 -1.62158 23.3259 -1.62158C15.4031 -1.62158 8.98047 4.56034 8.98047 12.1861C8.98047 19.8119 15.4031 25.9938 23.3259 25.9938Z" fill="#FF0000"/>
<path d="M45.4587 47.4216C53.3815 47.4216 59.8042 41.2396 59.8042 33.6139C59.8042 25.9881 53.3815 19.8062 45.4587 19.8062C37.536 19.8062 31.1133 25.9881 31.1133 33.6139C31.1133 41.2396 37.536 47.4216 45.4587 47.4216Z" fill="#FE5100"/>
<path d="M23.0017 48.4289C30.9245 48.4289 37.3471 42.247 37.3471 34.6212C37.3471 26.9954 30.9245 20.8135 23.0017 20.8135C15.0789 20.8135 8.65625 26.9954 8.65625 34.6212C8.65625 42.247 15.0789 48.4289 23.0017 48.4289Z" fill="#FA8800"/>
<path d="M42.7009 21.7409C50.6237 21.7409 57.0464 15.559 57.0464 7.9332C57.0464 0.307411 50.6237 -5.87451 42.7009 -5.87451C34.7781 -5.87451 28.3555 0.307411 28.3555 7.9332C28.3555 15.559 34.7781 21.7409 42.7009 21.7409Z" fill="#F7BE00"/>
<path d="M15.7546 48.662C21.8776 48.662 26.8413 43.8844 26.8413 37.9909C26.8413 32.0974 21.8776 27.3198 15.7546 27.3198C9.63163 27.3198 4.66797 32.0974 4.66797 37.9909C4.66797 43.8844 9.63163 48.662 15.7546 48.662Z" fill="#FE5100"/>
<path d="M50.529 21.3273C58.4518 21.3273 64.8745 15.1454 64.8745 7.51962C64.8745 -0.106164 58.4518 -6.28809 50.529 -6.28809C42.6063 -6.28809 36.1836 -0.106164 36.1836 7.51962C36.1836 15.1454 42.6063 21.3273 50.529 21.3273Z" fill="#FE5100"/>
</g>
<path d="M5.79424 21.7085C6.8348 21.7085 7.67833 20.8966 7.67833 19.895C7.67833 18.8935 6.8348 18.0815 5.79424 18.0815C4.75369 18.0815 3.91016 18.8935 3.91016 19.895C3.91016 20.8966 4.75369 21.7085 5.79424 21.7085Z" fill="#000F9F"/>
<path d="M9.90893 8.44134C10.9308 8.44134 11.7593 7.64397 11.7593 6.66037C11.7593 5.67676 10.9308 4.87939 9.90893 4.87939C8.88702 4.87939 8.05859 5.67676 8.05859 6.66037C8.05859 7.64397 8.88702 8.44134 9.90893 8.44134Z" fill="#000F9F"/>
<path d="M3.90974 14.9037C5.72816 14.9037 7.20229 13.4848 7.20229 11.7346C7.20229 9.9843 5.72816 8.56543 3.90974 8.56543C2.09131 8.56543 0.617188 9.9843 0.617188 11.7346C0.617188 13.4848 2.09131 14.9037 3.90974 14.9037Z" fill="#FF0000"/>
<path d="M7.68189 2.79403C8.48349 2.79403 9.13331 2.16857 9.13331 1.39702C9.13331 0.625465 8.48349 0 7.68189 0C6.88029 0 6.23047 0.625465 6.23047 1.39702C6.23047 2.16857 6.88029 2.79403 7.68189 2.79403Z" fill="#FF0000"/>
<path d="M4.11176 6.13756C5.16587 6.13756 6.0204 5.31507 6.0204 4.30047C6.0204 3.28587 5.16587 2.46338 4.11176 2.46338C3.05765 2.46338 2.20312 3.28587 2.20312 4.30047C2.20312 5.31507 3.05765 6.13756 4.11176 6.13756Z" fill="#00C4B3"/>
<path d="M1.85033 16.0346C2.87224 16.0346 3.70067 15.2372 3.70067 14.2536C3.70067 13.27 2.87224 12.4727 1.85033 12.4727C0.828422 12.4727 0 13.27 0 14.2536C0 15.2372 0.828422 16.0346 1.85033 16.0346Z" fill="#FFB600"/>
<path d="M16.663 7.59351C18.0086 7.59351 19.0994 6.54358 19.0994 5.24842C19.0994 3.95326 18.0086 2.90332 16.663 2.90332C15.3174 2.90332 14.2266 3.95326 14.2266 5.24842C14.2266 6.54358 15.3174 7.59351 16.663 7.59351Z" fill="#FFB600"/>
<path d="M15.9068 32.2201C16.5457 32.2201 17.0637 31.7216 17.0637 31.1066C17.0637 30.4917 16.5457 29.9932 15.9068 29.9932C15.2679 29.9932 14.75 30.4917 14.75 31.1066C14.75 31.7216 15.2679 32.2201 15.9068 32.2201Z" fill="#F7BE00"/>
<path d="M11.7942 15.6479C12.8348 15.6479 13.6783 14.836 13.6783 13.8345C13.6783 12.8329 12.8348 12.021 11.7942 12.021C10.7537 12.021 9.91016 12.8329 9.91016 13.8345C9.91016 14.836 10.7537 15.6479 11.7942 15.6479Z" fill="#00C4B3"/>
<path d="M12.0638 22.1279C13.1043 22.1279 13.9479 21.316 13.9479 20.3144C13.9479 19.3129 13.1043 18.501 12.0638 18.501C11.0232 18.501 10.1797 19.3129 10.1797 20.3144C10.1797 21.316 11.0232 22.1279 12.0638 22.1279Z" fill="#FFB600"/>
<path d="M3.10699 26.9067C4.23397 26.9067 5.14757 26.0273 5.14757 24.9426C5.14757 23.8579 4.23397 22.9785 3.10699 22.9785C1.98001 22.9785 1.06641 23.8579 1.06641 24.9426C1.06641 26.0273 1.98001 26.9067 3.10699 26.9067Z" fill="#00C4B3"/>
<path d="M11.7936 28.6436C13.1832 28.6436 14.3098 27.5593 14.3098 26.2217C14.3098 24.8841 13.1832 23.7998 11.7936 23.7998C10.4039 23.7998 9.27734 24.8841 9.27734 26.2217C9.27734 27.5593 10.4039 28.6436 11.7936 28.6436Z" fill="#00C4B3"/>
<path d="M9.06657 29.6002C10.0936 29.6002 10.9261 28.7988 10.9261 27.8103C10.9261 26.8218 10.0936 26.0205 9.06657 26.0205C8.03957 26.0205 7.20703 26.8218 7.20703 27.8103C7.20703 28.7988 8.03957 29.6002 9.06657 29.6002Z" fill="#FF0000"/>
</svg>