<?xml version="1.0" encoding="utf-8"?>
<!-- Generator: Adobe Illustrator 23.1.0, SVG Export Plug-In . SVG Version: 6.00 Build 0)  -->
<svg version="1.1" id="Calque_1" xmlns="http://www.w3.org/2000/svg" xmlns:xlink="http://www.w3.org/1999/xlink" x="0px" y="0px"
	 viewBox="0 0 499.773 201.611" enable-background="new 0 0 499.773 201.611" xml:space="preserve">
<g>
	<radialGradient id="SVGID_1_" cx="123.5602" cy="102.8954" r="90.1488" gradientUnits="userSpaceOnUse">
		<stop  offset="0.1227" style="stop-color:#74C5C9"/>
		<stop  offset="0.9939" style="stop-color:#00A19C"/>
	</radialGradient>
	<path fill="url(#SVGID_1_)" d="M90.278,76.815c-0.079-0.068-0.131-0.164-0.201-0.245l-20.646-1.088
		c-0.163,0.649-0.486,1.233-0.936,1.708l14.54,32.282L90.278,76.815z"/>
	<radialGradient id="SVGID_2_" cx="123.5592" cy="102.8939" r="90.1482" gradientUnits="userSpaceOnUse">
		<stop  offset="0.1227" style="stop-color:#74C5C9"/>
		<stop  offset="0.9939" style="stop-color:#00A19C"/>
	</radialGradient>
	<path fill="url(#SVGID_2_)" d="M62.176,134.269c0.291,0.432,0.495,0.922,0.592,1.463l22.027,6.793
		c0.031-0.032,0.069-0.054,0.103-0.085l-2.449-25.959L62.176,134.269z"/>
	<radialGradient id="SVGID_3_" cx="123.5601" cy="102.8953" r="90.145" gradientUnits="userSpaceOnUse">
		<stop  offset="0.1227" style="stop-color:#74C5C9"/>
		<stop  offset="0.9939" style="stop-color:#00A19C"/>
	</radialGradient>
	<path fill="url(#SVGID_3_)" d="M87.275,142.118c0.263,0.133,0.487,0.312,0.676,0.537l35.974-3.391l-39.136-23.523L87.275,142.118z"
		/>
	<radialGradient id="SVGID_4_" cx="123.5596" cy="102.8952" r="90.1497" gradientUnits="userSpaceOnUse">
		<stop  offset="0.1227" style="stop-color:#74C5C9"/>
		<stop  offset="0.9939" style="stop-color:#00A19C"/>
	</radialGradient>
	<path fill="url(#SVGID_4_)" d="M151.683,95.281l-16.303-38.145c-0.173-0.038-0.328-0.101-0.484-0.178L94.931,75.59L151.683,95.281z
		"/>
	<radialGradient id="SVGID_5_" cx="123.5599" cy="102.8951" r="90.1474" gradientUnits="userSpaceOnUse">
		<stop  offset="0.1227" style="stop-color:#74C5C9"/>
		<stop  offset="0.9939" style="stop-color:#00A19C"/>
	</radialGradient>
	<path fill="url(#SVGID_5_)" d="M93.234,73.736l40.081-18.687L93.301,30.447c-0.497,0.488-1.122,0.843-1.836,1.005l1.688,42.185
		C93.183,73.666,93.204,73.705,93.234,73.736z"/>
	<radialGradient id="SVGID_6_" cx="123.5605" cy="102.8949" r="90.147" gradientUnits="userSpaceOnUse">
		<stop  offset="0.1227" style="stop-color:#74C5C9"/>
		<stop  offset="0.9939" style="stop-color:#00A19C"/>
	</radialGradient>
	<path fill="url(#SVGID_6_)" d="M220.539,91.453c-5.118-54.28-53.27-94.128-107.549-89.011
		C58.708,7.563,18.859,55.71,23.976,109.991c5.12,54.279,53.269,94.132,107.555,89.014
		C185.808,193.885,225.659,145.732,220.539,91.453z M199.265,131.653c-2.126,0.202-4.014-1.359-4.213-3.485
		c-0.042-0.443,0.008-0.868,0.108-1.279l-40.969-27.842l-24.569,40.174l39.504,2.414c0.537-1.269,1.718-2.216,3.184-2.355
		c2.123-0.2,4.011,1.364,4.213,3.488c0.198,2.126-1.362,4.014-3.488,4.215c-1.961,0.184-3.7-1.137-4.119-3.011l-39.458-2.712
		c-0.12,0.184-0.262,0.339-0.432,0.48l1.036,36.098c1.473,0.434,2.611,1.722,2.765,3.344c0.198,2.123-1.362,4.011-3.486,4.209
		c-2.128,0.202-4.013-1.358-4.213-3.485c-0.168-1.788,0.919-3.397,2.532-3.986l-1.246-36.076c-0.144-0.104-0.258-0.234-0.372-0.371
		l-37.867,3.571c-0.335,0.598-0.916,1.049-1.651,1.117c-0.122,0.011-0.232-0.029-0.35-0.036l-11.571,15.391
		c0.28,0.475,0.472,1.013,0.527,1.596c0.202,2.126-1.358,4.011-3.485,4.213c-2.126,0.197-4.011-1.362-4.213-3.489
		c-0.2-2.122,1.358-4.014,3.485-4.213c0.665-0.061,1.299,0.065,1.873,0.31l11.505-15.316c-0.008-0.025-0.017-0.051-0.023-0.078
		l-22.018-6.094c-0.616,0.989-1.66,1.699-2.908,1.818c-2.13,0.2-4.014-1.36-4.213-3.488c-0.202-2.123,1.358-4.011,3.485-4.213
		c0.78-0.072,1.527,0.095,2.171,0.438l20.048-18.346l-33.973-5.123c-0.577,1.157-1.709,2.005-3.09,2.135
		c-2.126,0.202-4.013-1.362-4.213-3.485c-0.2-2.126,1.362-4.018,3.487-4.216c2.03-0.193,3.825,1.235,4.159,3.213l34.147,4.988
		L66.535,78.304c-0.158,0.036-0.313,0.079-0.478,0.094c-2.13,0.202-4.015-1.362-4.213-3.486c-0.137-1.444,0.549-2.762,1.662-3.532
		l-0.036-0.083l0.138,0.014c0.505-0.326,1.083-0.553,1.723-0.614c1.184-0.112,2.283,0.337,3.069,1.114l21.502,2.238
		c0.201-0.313,0.456-0.587,0.791-0.764l-1.19-41.878c-1.469-0.437-2.599-1.723-2.751-3.341c-0.2-2.122,1.358-4.014,3.483-4.213
		c2.128-0.202,4.015,1.362,4.216,3.488c0.032,0.337,0.005,0.663-0.048,0.984l40.319,24.761l0.639-19.341
		c-1.636-0.321-2.944-1.668-3.106-3.413c-0.202-2.126,1.358-4.016,3.485-4.216c2.126-0.202,4.011,1.364,4.211,3.49
		c0.155,1.656-0.764,3.155-2.181,3.836l-0.659,19.894c0.079,0.059,0.146,0.124,0.215,0.191l40.083-6.955
		c0.425-1.487,1.715-2.639,3.347-2.793c2.126-0.2,4.011,1.364,4.213,3.49c0.202,2.123-1.358,4.011-3.486,4.213
		c-0.463,0.043-0.911-0.011-1.337-0.123l-24.209,44.1l21.704-9.741c-0.051-0.197-0.099-0.395-0.118-0.602
		c-0.199-2.124,1.362-4.014,3.488-4.214c2.122-0.2,4.011,1.364,4.213,3.488c0.202,2.126-1.362,4.013-3.488,4.213
		c-1.096,0.105-2.125-0.27-2.896-0.942l-22.775,9.636l40.359,27.545c0.58-0.487,1.305-0.811,2.115-0.887
		c2.126-0.202,4.014,1.362,4.212,3.485C202.952,129.57,201.391,131.454,199.265,131.653z"/>
	<radialGradient id="SVGID_7_" cx="123.5604" cy="102.8943" r="90.1487" gradientUnits="userSpaceOnUse">
		<stop  offset="0.1227" style="stop-color:#74C5C9"/>
		<stop  offset="0.9939" style="stop-color:#00A19C"/>
	</radialGradient>
	<path fill="url(#SVGID_7_)" d="M84.938,111.966c0.059,0.057,0.105,0.126,0.159,0.191l0.727-0.054l-0.41,0.58
		c0.078,0.191,0.161,0.382,0.181,0.598c0.005,0.047-0.016,0.09-0.014,0.137l41.189,24.756c0.217-0.101,0.445-0.186,0.696-0.211
		c0.038-0.004,0.07,0.013,0.107,0.011l24.479-40.026l-59.431-20.62L84.938,111.966z"/>
	<radialGradient id="SVGID_8_" cx="123.5598" cy="102.8962" r="90.1475" gradientUnits="userSpaceOnUse">
		<stop  offset="0.1227" style="stop-color:#74C5C9"/>
		<stop  offset="0.9939" style="stop-color:#00A19C"/>
	</radialGradient>
	<path fill="url(#SVGID_8_)" d="M177.71,49.452l-40.081,6.84l16.384,38.332c0.08,0.007,0.16,0.007,0.235,0.025l24.358-44.087
		C178.246,50.252,177.937,49.88,177.71,49.452z"/>
</g>
<g>
	<path fill="#00A19C" d="M262.577,72.703c0-0.88,0.313-1.633,0.94-2.26c0.626-0.625,1.38-0.94,2.26-0.94
		c0.88,0,1.633,0.315,2.26,0.94c0.626,0.627,0.94,1.38,0.94,2.26v54.399h32c0.88,0,1.633,0.315,2.26,0.94
		c0.626,0.627,0.94,1.38,0.94,2.26c0,0.881-0.314,1.634-0.94,2.26c-0.627,0.628-1.38,0.94-2.26,0.94h-35.2
		c-0.88,0-1.634-0.312-2.26-0.94c-0.627-0.626-0.94-1.38-0.94-2.26V72.703z"/>
	<path fill="#00A19C" d="M312.793,72.703c0-0.88,0.313-1.633,0.94-2.26c0.626-0.625,1.38-0.94,2.26-0.94
		c0.88,0,1.633,0.315,2.26,0.94c0.626,0.627,0.94,1.38,0.94,2.26v57.599c0,0.881-0.313,1.634-0.94,2.26
		c-0.627,0.628-1.38,0.94-2.26,0.94c-0.88,0-1.634-0.312-2.26-0.94c-0.627-0.626-0.94-1.38-0.94-2.26V72.703z"/>
	<path fill="#00A19C" d="M337.392,95.943c-2.854-3.36-4.107-7.253-3.76-11.68c0.373-4.4,2.24-8.026,5.6-10.88
		c3.013-2.586,6.48-3.881,10.4-3.881c4.64,0,8.693,1.908,12.16,5.72c0.586,0.695,1.106,1.415,1.56,2.16
		c0.32,0.507,0.48,1.08,0.48,1.721c0,0.88-0.313,1.634-0.94,2.26c-0.627,0.627-1.38,0.94-2.26,0.94c-1.014,0-1.76-0.32-2.24-0.96
		c-0.48-0.64-0.973-1.293-1.48-1.96c-1.734-2.025-3.907-3.145-6.52-3.36c-2.64-0.212-4.974,0.541-7,2.26
		c-2.027,1.72-3.147,3.887-3.36,6.499c-0.213,2.64,0.547,4.975,2.28,7c1.413,1.36,3.706,2.455,6.88,3.281
		c5.573,1.227,9.813,3.494,12.72,6.8c3.013,3.574,4.52,7.627,4.52,12.16c0,0.614-0.027,1.227-0.08,1.84
		c-0.427,5.28-2.654,9.626-6.68,13.04c-3.6,3.067-7.694,4.599-12.28,4.599c-5.733,0-10.667-2.265-14.8-6.8
		c-0.56-0.613-1.067-1.265-1.52-1.96c-0.427-0.56-0.64-1.2-0.64-1.92c0-0.881,0.312-1.632,0.94-2.26
		c0.626-0.626,1.38-0.94,2.26-0.94c1.146,0,2.053,0.494,2.72,1.48c0.32,0.508,0.693,0.987,1.12,1.441
		c2.266,2.72,5.173,4.227,8.72,4.52c3.52,0.267,6.626-0.74,9.32-3.02c2.693-2.28,4.187-5.18,4.48-8.7
		c0.293-3.545-0.693-6.666-2.96-9.36c-1.973-2.213-5.053-3.865-9.24-4.961C343.738,100.303,340.271,98.611,337.392,95.943z"/>
	<path fill="#00A19C" d="M372.754,75.904c-0.88,0-1.634-0.313-2.26-0.94c-0.627-0.625-0.94-1.38-0.94-2.26
		c0-0.88,0.313-1.633,0.94-2.26c0.626-0.625,1.38-0.94,2.26-0.94h41.6c0.88,0,1.633,0.315,2.26,0.94
		c0.626,0.627,0.94,1.38,0.94,2.26c0,0.88-0.314,1.635-0.94,2.26c-0.627,0.627-1.38,0.94-2.26,0.94h-17.6v54.399
		c0,0.881-0.313,1.634-0.94,2.26c-0.627,0.628-1.38,0.94-2.26,0.94c-0.88,0-1.634-0.312-2.26-0.94c-0.627-0.626-0.94-1.38-0.94-2.26
		V75.904H372.754z"/>
	<path fill="#00A19C" d="M426.171,72.703c0-0.88,0.312-1.633,0.939-2.26c0.627-0.625,1.38-0.94,2.26-0.94
		c0.88,0,1.633,0.315,2.261,0.94c0.626,0.627,0.939,1.38,0.939,2.26v57.599c0,0.881-0.314,1.634-0.939,2.26
		c-0.628,0.628-1.381,0.94-2.261,0.94c-0.88,0-1.633-0.312-2.26-0.94c-0.627-0.626-0.939-1.38-0.939-2.26V72.703z"/>
	<path fill="#00A19C" d="M491.027,120.943c0.88,0,1.633,0.315,2.26,0.94c0.627,0.627,0.94,1.38,0.94,2.26
		c0,0.88-0.307,1.628-0.92,2.24c-5.947,4.747-12.654,7.12-20.12,7.12c-8.828,0-16.368-3.125-22.62-9.38
		c-6.254-6.252-9.38-13.793-9.38-22.62c0-8.825,3.126-16.364,9.38-22.62c6.252-6.252,13.792-9.38,22.62-9.38
		c7.626,0,14.413,2.44,20.36,7.32c0.613,0.64,0.92,1.4,0.92,2.28c0,0.88-0.313,1.634-0.94,2.26c-0.627,0.627-1.38,0.94-2.26,0.94
		c-0.88,0-1.64-0.32-2.28-0.96c-4.507-3.625-9.774-5.44-15.8-5.44c-7.068,0-13.1,2.499-18.1,7.499c-5,5.001-7.5,11.035-7.5,18.1
		c0,7.067,2.5,13.1,7.5,18.1c5,5,11.033,7.499,18.1,7.499c6.106,0,11.439-1.865,16-5.6
		C489.72,121.13,490.334,120.943,491.027,120.943z"/>
</g>
</svg>
